<svg width="18" height="18" viewBox="0 0 18 18" fill="none" xmlns="http://www.w3.org/2000/svg">
<path fill-rule="evenodd" clip-rule="evenodd" d="M7.2 3.60004C5.77598 3.60004 4.38393 4.02231 3.1999 4.81346C2.01586 5.6046 1.09302 6.72909 0.548071 8.04472C0.00311963 9.36034 -0.139464 10.808 0.138349 12.2047C0.416163 13.6013 1.1019 14.8843 2.10883 15.8912C3.11577 16.8981 4.39869 17.5839 5.79535 17.8617C7.19202 18.1395 8.6397 17.9969 9.95532 17.452C11.271 16.907 12.3954 15.9842 13.1866 14.8001C13.9777 13.6161 14.4 12.2241 14.4 10.8C14.4 10.303 13.9971 9.90004 13.5 9.90004H9C8.50295 9.90004 8.1 9.49709 8.1 9.00004V4.50004C8.1 4.00298 7.69706 3.60004 7.2 3.60004Z" fill="#0BB885"/>
<path d="M10.8 0C10.5613 0 10.3324 0.0948211 10.1636 0.263604C9.99485 0.432387 9.90002 0.661305 9.90002 0.9V7.2C9.90002 7.4387 9.99485 7.66761 10.1636 7.8364C10.3324 8.00518 10.5613 8.1 10.8 8.1L17.1 8.1C17.3387 8.1 17.5676 8.00518 17.7364 7.83639C17.9052 7.66761 18 7.43869 18 7.2C18 5.29044 17.2415 3.45909 15.8912 2.10883C14.5409 0.758569 12.7096 0 10.8 0Z" fill="#98FFE0"/>
</svg>
