<svg width="141" height="141" viewBox="0 0 141 141" fill="none" xmlns="http://www.w3.org/2000/svg">
<circle cx="70.3756" cy="70.3758" r="64.3755" stroke="#1F2849" stroke-width="11"/>
<path d="M70.3756 6.00031C83.6602 6.00031 96.6194 10.1102 107.476 17.7662C118.332 25.4223 126.555 36.2496 131.015 48.7631C135.475 61.2766 135.954 74.8634 132.387 87.6602C128.82 100.457 121.382 111.837 111.092 120.239C100.802 128.641 88.1649 133.655 74.9134 134.591" stroke="#0BB885" stroke-width="12" stroke-linecap="round"/>
<circle cx="70.3602" cy="70.3603" r="44.3603" stroke="#1F2849" stroke-width="11"/>
<path d="M70.3586 26C76.7909 26 83.1464 27.3989 88.9843 30.0997C94.8222 32.8005 100.003 36.7385 104.167 41.6409C108.332 46.5433 111.38 52.2927 113.101 58.4905C114.822 64.6884 115.175 71.1864 114.135 77.5341C113.095 83.8818 110.686 89.9274 107.077 95.2517C103.468 100.576 98.7438 105.052 93.2325 108.368" stroke="#FF814A" stroke-width="13" stroke-linecap="round"/>
</svg>
