<svg width="33" height="32" viewBox="0 0 33 32" fill="none" xmlns="http://www.w3.org/2000/svg">
<rect x="2.5" y="4.80002" width="28" height="25.2" rx="3" fill="#0BB885"/>
<path d="M2.5 7.80002C2.5 6.14317 3.84315 4.80002 5.5 4.80002H27.5C29.1569 4.80002 30.5 6.14316 30.5 7.80002V13.2H2.5V7.80002Z" fill="#98FFE0"/>
<path fill-rule="evenodd" clip-rule="evenodd" d="M9.50004 2C10.2732 2 10.9 2.6268 10.9 3.4V6.2C10.9 6.9732 10.2732 7.6 9.50004 7.6C8.72684 7.6 8.10004 6.9732 8.10004 6.2V3.4C8.10004 2.6268 8.72684 2 9.50004 2Z" fill="#0BB885"/>
<path fill-rule="evenodd" clip-rule="evenodd" d="M23.5 2C24.2732 2 24.9 2.6268 24.9 3.4V6.2C24.9 6.9732 24.2732 7.6 23.5 7.6C22.7268 7.6 22.1 6.9732 22.1 6.2V3.4C22.1 2.6268 22.7268 2 23.5 2Z" fill="#0BB885"/>
</svg>
