<svg width="32" height="32" viewBox="0 0 32 32" fill="none" xmlns="http://www.w3.org/2000/svg">
<path d="M30 27V10.6C30 8.94316 28.6569 7.60002 27 7.60002H6.2V4.80002H2V27C2 28.6569 3.34315 30 5 30H27C28.6569 30 30 28.6569 30 27Z" fill="#0BB885"/>
<path d="M21.6 18.8C21.6 17.2536 22.8536 16 24.4 16H30V21.6H24.4C22.8536 21.6 21.6 20.3464 21.6 18.8Z" fill="#98FFE0"/>
<path d="M4.8 2C3.2536 2 2 3.2536 2 4.8C2 6.3464 3.2536 7.6 4.8 7.6H25.8C26.2909 7.6 26.7621 7.68422 27.2 7.83899V3.4C27.2 2.6268 26.5732 2 25.8 2H4.8Z" fill="#98FFE0"/>
</svg>
